<svg width="17" height="21" viewBox="0 0 17 21" fill="none" xmlns="http://www.w3.org/2000/svg">
<path d="M8.5 0.796875C6.49844 0.796875 4.57887 1.59199 3.16355 3.0073C1.74824 4.42262 0.953125 6.34219 0.953125 8.34375C0.953125 14.4531 8.5 20.2031 8.5 20.2031C8.5 20.2031 16.0469 14.4531 16.0469 8.34375C16.0469 6.34219 15.2518 4.42262 13.8364 3.0073C12.4211 1.59199 10.5016 0.796875 8.5 0.796875ZM8.5 11.9375C7.78922 11.9375 7.09441 11.7267 6.50342 11.3318C5.91243 10.937 5.45181 10.3757 5.17981 9.71902C4.90781 9.06235 4.83664 8.33976 4.9753 7.64264C5.11397 6.94553 5.45624 6.30518 5.95884 5.80259C6.46143 5.29999 7.10178 4.95772 7.79889 4.81905C8.49601 4.68039 9.2186 4.75156 9.87527 5.02356C10.5319 5.29556 11.0932 5.75618 11.4881 6.34717C11.883 6.93816 12.0938 7.63297 12.0938 8.34375C12.0938 9.29687 11.7151 10.211 11.0412 10.8849C10.3672 11.5589 9.45312 11.9375 8.5 11.9375Z" fill="#FE8204"/>
</svg>
