<svg width="13" height="15" viewBox="0 0 13 15" fill="none" xmlns="http://www.w3.org/2000/svg">
<path d="M6.5 0.328125C5.02059 0.328125 3.60177 0.915819 2.55567 1.96192C1.50957 3.00802 0.921875 4.42684 0.921875 5.90625C0.921875 10.4219 6.5 14.6719 6.5 14.6719C6.5 14.6719 12.0781 10.4219 12.0781 5.90625C12.0781 4.42684 11.4904 3.00802 10.4443 1.96192C9.39823 0.915819 7.97941 0.328125 6.5 0.328125ZM6.5 8.5625C5.97464 8.5625 5.46108 8.40671 5.02427 8.11484C4.58745 7.82297 4.24699 7.40812 4.04594 6.92275C3.8449 6.43739 3.7923 5.9033 3.89479 5.38804C3.99728 4.87278 4.25026 4.39948 4.62175 4.028C4.99323 3.65651 5.46653 3.40353 5.98179 3.30104C6.49705 3.19855 7.03114 3.25115 7.5165 3.45219C8.00187 3.65324 8.41672 3.9937 8.70859 4.43052C9.00046 4.86733 9.15625 5.38089 9.15625 5.90625C9.15625 6.61073 8.8764 7.28636 8.37825 7.7845C7.88011 8.28265 7.20448 8.5625 6.5 8.5625Z" fill="#FE8204"/>
</svg>
